<svg width="85" height="35" viewBox="0 0 85 35" fill="none" xmlns="http://www.w3.org/2000/svg">
<path d="M1.53738 23V15.064H2.75338L2.83338 16.488C3.08938 15.9867 3.45738 15.592 3.93738 15.304C4.41738 15.016 4.96138 14.872 5.56938 14.872C6.50805 14.872 7.25471 15.16 7.80938 15.736C8.37471 16.3013 8.65738 17.176 8.65738 18.36V23H7.31338V18.504C7.31338 16.8507 6.63071 16.024 5.26538 16.024C4.58271 16.024 4.01205 16.2747 3.55338 16.776C3.10538 17.2667 2.88138 17.9707 2.88138 18.888V23H1.53738ZM15.5896 20.504C15.1416 20.504 14.731 20.4453 14.3576 20.328L13.5576 21.08C13.675 21.1653 13.819 21.24 13.9896 21.304C14.171 21.3573 14.427 21.4107 14.7576 21.464C15.0883 21.5067 15.5523 21.5547 16.1496 21.608C17.2163 21.6827 17.979 21.928 18.4376 22.344C18.8963 22.76 19.1256 23.304 19.1256 23.976C19.1256 24.4347 18.9976 24.872 18.7416 25.288C18.4963 25.704 18.1123 26.0453 17.5896 26.312C17.0776 26.5787 16.4163 26.712 15.6056 26.712C14.891 26.712 14.2563 26.616 13.7016 26.424C13.147 26.2427 12.715 25.96 12.4056 25.576C12.0963 25.2027 11.9416 24.728 11.9416 24.152C11.9416 23.8533 12.0216 23.528 12.1816 23.176C12.3416 22.8347 12.6403 22.5093 13.0776 22.2C12.843 22.104 12.6403 22.0027 12.4696 21.896C12.3096 21.7787 12.1603 21.6507 12.0216 21.512V21.144L13.3816 19.8C12.7523 19.2667 12.4376 18.5627 12.4376 17.688C12.4376 17.1653 12.5603 16.6907 12.8056 16.264C13.051 15.8373 13.4083 15.5013 13.8776 15.256C14.347 15 14.9176 14.872 15.5896 14.872C16.0483 14.872 16.4643 14.936 16.8376 15.064H19.7656V16.072L18.2776 16.136C18.587 16.584 18.7416 17.1013 18.7416 17.688C18.7416 18.2107 18.6136 18.6853 18.3576 19.112C18.1123 19.5387 17.755 19.88 17.2856 20.136C16.827 20.3813 16.2616 20.504 15.5896 20.504ZM15.5896 19.4C16.155 19.4 16.603 19.256 16.9336 18.968C17.275 18.6693 17.4456 18.2427 17.4456 17.688C17.4456 17.144 17.275 16.728 16.9336 16.44C16.603 16.1413 16.155 15.992 15.5896 15.992C15.0136 15.992 14.555 16.1413 14.2136 16.44C13.883 16.728 13.7176 17.144 13.7176 17.688C13.7176 18.2427 13.883 18.6693 14.2136 18.968C14.555 19.256 15.0136 19.4 15.5896 19.4ZM13.2536 24.024C13.2536 24.5573 13.4776 24.952 13.9256 25.208C14.3736 25.4747 14.9336 25.608 15.6056 25.608C16.267 25.608 16.795 25.464 17.1896 25.176C17.595 24.888 17.7976 24.504 17.7976 24.024C17.7976 23.6827 17.659 23.384 17.3816 23.128C17.1043 22.8827 16.5923 22.7387 15.8456 22.696C15.259 22.6533 14.7523 22.6 14.3256 22.536C13.8883 22.7707 13.6003 23.0213 13.4616 23.288C13.323 23.5653 13.2536 23.8107 13.2536 24.024ZM23.0418 23V11.48H24.3858V16.424C24.6524 15.9333 25.0311 15.5547 25.5218 15.288C26.0124 15.0107 26.5458 14.872 27.1218 14.872C28.0391 14.872 28.7751 15.16 29.3298 15.736C29.8844 16.3013 30.1618 17.176 30.1618 18.36V23H28.8338V18.504C28.8338 16.8507 28.1671 16.024 26.8338 16.024C26.1404 16.024 25.5591 16.2747 25.0898 16.776C24.6204 17.2667 24.3858 17.9707 24.3858 18.888V23H23.0418ZM34.774 13.304C34.5073 13.304 34.2833 13.2187 34.102 13.048C33.9313 12.8667 33.846 12.6427 33.846 12.376C33.846 12.12 33.9313 11.9067 34.102 11.736C34.2833 11.5653 34.5073 11.48 34.774 11.48C35.03 11.48 35.2487 11.5653 35.43 11.736C35.6113 11.9067 35.702 12.12 35.702 12.376C35.702 12.6427 35.6113 12.8667 35.43 13.048C35.2487 13.2187 35.03 13.304 34.774 13.304ZM34.102 23V15.064H35.446V23H34.102ZM42.1861 23.192C41.5248 23.192 40.9755 23.08 40.5381 22.856C40.1008 22.632 39.7755 22.3333 39.5621 21.96C39.3488 21.5867 39.2421 21.1813 39.2421 20.744C39.2421 19.9333 39.5515 19.3093 40.1701 18.872C40.7888 18.4347 41.6315 18.216 42.6981 18.216H44.8421V18.12C44.8421 17.4267 44.6608 16.904 44.2981 16.552C43.9355 16.1893 43.4501 16.008 42.8421 16.008C42.3195 16.008 41.8661 16.1413 41.4821 16.408C41.1088 16.664 40.8741 17.0427 40.7781 17.544H39.4021C39.4555 16.968 39.6475 16.4827 39.9781 16.088C40.3195 15.6933 40.7408 15.3947 41.2421 15.192C41.7435 14.9787 42.2768 14.872 42.8421 14.872C43.9515 14.872 44.7835 15.1707 45.3381 15.768C45.9035 16.3547 46.1861 17.1387 46.1861 18.12V23H44.9861L44.9061 21.576C44.6821 22.024 44.3515 22.408 43.9141 22.728C43.4875 23.0373 42.9115 23.192 42.1861 23.192ZM42.3941 22.056C42.9061 22.056 43.3435 21.9227 43.7061 21.656C44.0795 21.3893 44.3621 21.0427 44.5541 20.616C44.7461 20.1893 44.8421 19.7413 44.8421 19.272V19.256H42.8101C42.0208 19.256 41.4608 19.3947 41.1301 19.672C40.8101 19.9387 40.6501 20.2747 40.6501 20.68C40.6501 21.096 40.7995 21.432 41.0981 21.688C41.4075 21.9333 41.8395 22.056 42.3941 22.056ZM53.5624 23.192C52.773 23.192 52.0797 23.0107 51.4824 22.648C50.8957 22.2853 50.437 21.7893 50.1064 21.16C49.7864 20.5307 49.6264 19.816 49.6264 19.016C49.6264 18.216 49.7917 17.5067 50.1224 16.888C50.453 16.2587 50.9117 15.768 51.4984 15.416C52.085 15.0533 52.7784 14.872 53.5784 14.872C54.229 14.872 54.805 15.0053 55.3064 15.272C55.8077 15.5387 56.197 15.912 56.4744 16.392V11.48H57.8184V23H56.6024L56.4744 21.688C56.2184 22.072 55.8504 22.4187 55.3704 22.728C54.8904 23.0373 54.2877 23.192 53.5624 23.192ZM53.7064 22.024C54.2397 22.024 54.709 21.9013 55.1144 21.656C55.5304 21.4 55.8504 21.048 56.0744 20.6C56.309 20.152 56.4264 19.6293 56.4264 19.032C56.4264 18.4347 56.309 17.912 56.0744 17.464C55.8504 17.016 55.5304 16.6693 55.1144 16.424C54.709 16.168 54.2397 16.04 53.7064 16.04C53.1837 16.04 52.7144 16.168 52.2984 16.424C51.893 16.6693 51.573 17.016 51.3384 17.464C51.1144 17.912 51.0024 18.4347 51.0024 19.032C51.0024 19.6293 51.1144 20.152 51.3384 20.6C51.573 21.048 51.893 21.4 52.2984 21.656C52.7144 21.9013 53.1837 22.024 53.7064 22.024ZM64.9053 23C64.1799 23 63.6093 22.824 63.1933 22.472C62.7773 22.12 62.5693 21.4853 62.5693 20.568V16.2H61.1933V15.064H62.5693L62.7453 13.16H63.9133V15.064H66.2493V16.2H63.9133V20.568C63.9133 21.0693 64.0146 21.4107 64.2173 21.592C64.4199 21.7627 64.7773 21.848 65.2893 21.848H66.1213V23H64.9053Z" fill="#F3F3F3"/>
<path d="M76.5835 18.3437V12.5781H79.2085C79.547 12.5781 79.8543 12.651 80.1304 12.7969C80.4064 12.9375 80.6226 13.1406 80.7788 13.4062C80.9403 13.6667 81.021 13.9766 81.021 14.3359C81.021 14.7005 80.9403 15.0208 80.7788 15.2969C80.6174 15.5677 80.396 15.7812 80.1147 15.9375C79.8387 16.0885 79.5262 16.1641 79.1772 16.1641H77.0054V15.5156H79.0366C79.396 15.5156 79.6825 15.4115 79.896 15.2031C80.1147 14.9948 80.2241 14.7057 80.2241 14.3359C80.2241 13.9609 80.1147 13.6823 79.896 13.5C79.6825 13.3177 79.3986 13.2266 79.0444 13.2266H77.3413V18.3437H76.5835ZM79.8335 15.7109L81.2554 18.3437H80.4116L79.0132 15.7109H79.8335ZM78.6382 21.7812C77.7736 21.7812 76.9637 21.6198 76.2085 21.2969C75.4533 20.974 74.7892 20.526 74.2163 19.9531C73.6434 19.3802 73.1955 18.7161 72.8726 17.9609C72.5496 17.2057 72.3882 16.3958 72.3882 15.5312C72.3882 14.6667 72.5496 13.8568 72.8726 13.1016C73.1955 12.3464 73.6434 11.6823 74.2163 11.1094C74.7892 10.5365 75.4533 10.0885 76.2085 9.76562C76.9637 9.44271 77.7736 9.28125 78.6382 9.28125C79.5028 9.28125 80.3127 9.44271 81.0679 9.76562C81.8231 10.0885 82.4871 10.5365 83.0601 11.1094C83.633 11.6823 84.0809 12.3464 84.4038 13.1016C84.7267 13.8568 84.8882 14.6667 84.8882 15.5312C84.8882 16.3958 84.7267 17.2057 84.4038 17.9609C84.0809 18.7161 83.633 19.3802 83.0601 19.9531C82.4871 20.526 81.8231 20.974 81.0679 21.2969C80.3127 21.6198 79.5028 21.7812 78.6382 21.7812ZM78.6382 20.9453C79.6382 20.9453 80.547 20.7031 81.3647 20.2187C82.1877 19.7344 82.8413 19.0833 83.3257 18.2656C83.8101 17.4427 84.0522 16.5312 84.0522 15.5312C84.0522 14.5313 83.8075 13.6224 83.3179 12.8047C82.8335 11.987 82.1825 11.3359 81.3647 10.8516C80.547 10.362 79.6382 10.1172 78.6382 10.1172C77.6382 10.1172 76.7267 10.3594 75.9038 10.8437C75.0861 11.3281 74.4351 11.9818 73.9507 12.8047C73.4663 13.6224 73.2241 14.5313 73.2241 15.5312C73.2241 16.526 73.4663 17.4349 73.9507 18.2578C74.4351 19.0807 75.0861 19.7344 75.9038 20.2187C76.7267 20.7031 77.6382 20.9453 78.6382 20.9453Z" fill="#A5A5A5"/>
</svg>
